<svg width="143" height="101" viewBox="0 0 143 101" fill="none" xmlns="http://www.w3.org/2000/svg">
<g clip-path="url(#clip0_1_350)">
<rect width="1920" height="4684" transform="translate(-1546 -4424)" fill="white"/>
<rect x="-1546" y="-359" width="1920" height="460" fill="#D52027"/>
<mask id="mask0_1_350" style="mask-type:alpha" maskUnits="userSpaceOnUse" x="-1546" y="-359" width="1920" height="460">
<rect x="-1546" y="-359" width="1920" height="460" rx="20" fill="#D52027"/>
</mask>
<g mask="url(#mask0_1_350)">
<path d="M-139 30.1485C-139 35.4183 -137.737 40.3038 -135.212 44.8051C-132.577 49.1966 -129.009 52.7098 -124.508 55.3447C-120.007 57.9796 -114.957 59.297 -109.357 59.297C-103.649 59.297 -98.5983 57.9796 -94.2068 55.3447C-89.7055 52.7098 -86.1923 49.1966 -83.6672 44.8051C-81.1421 40.3038 -79.8796 35.4183 -79.8796 30.1485C-79.8796 24.6591 -81.1421 19.7187 -83.6672 15.3272C-86.1923 10.9357 -89.7055 7.47745 -94.2068 4.95234C-98.5983 2.31745 -103.649 1 -109.357 1C-114.957 1 -120.007 2.31745 -124.508 4.95234C-129.009 7.47745 -132.577 10.9357 -135.212 15.3272C-137.737 19.7187 -139 24.6591 -139 30.1485ZM-121.214 30.1485C-121.214 27.843 -120.72 25.757 -119.732 23.8906C-118.744 22.0243 -117.372 20.5421 -115.615 19.4443C-113.859 18.2366 -111.773 17.6328 -109.357 17.6328C-106.942 17.6328 -104.911 18.2366 -103.264 19.4443C-101.508 20.5421 -100.135 22.0243 -99.1472 23.8906C-98.1591 25.757 -97.6651 27.843 -97.6651 30.1485C-97.6651 32.3442 -98.1591 34.4302 -99.1472 36.4064C-100.135 38.2728 -101.508 39.7549 -103.264 40.8528C-104.911 41.9506 -106.942 42.4996 -109.357 42.4996C-111.773 42.4996 -113.859 41.9506 -115.615 40.8528C-117.372 39.7549 -118.744 38.2728 -119.732 36.4064C-120.72 34.4302 -121.214 32.3442 -121.214 30.1485ZM-64.0702 92.3979C-64.0702 97.7774 -62.8077 102.663 -60.2826 107.054C-57.6477 111.446 -54.0796 114.959 -49.5783 117.594C-45.077 120.229 -40.0268 121.546 -34.4277 121.546C-28.7187 121.546 -23.6685 120.229 -19.277 117.594C-14.7757 114.959 -11.2626 111.446 -8.73746 107.054C-6.21235 102.663 -4.94978 97.7774 -4.94978 92.3979C-4.94978 87.0183 -6.21235 82.1328 -8.73746 77.7413C-11.2626 73.24 -14.7757 69.7268 -19.277 67.2017C-23.6685 64.5668 -28.7187 63.2494 -34.4277 63.2494C-40.0268 63.2494 -45.077 64.5668 -49.5783 67.2017C-54.0796 69.7268 -57.6477 73.24 -60.2826 77.7413C-62.8077 82.1328 -64.0702 87.0183 -64.0702 92.3979ZM-46.2847 92.3979C-46.2847 90.0923 -45.7906 88.0064 -44.8025 86.14C-43.8145 84.2736 -42.4421 82.7915 -40.6855 81.6936C-38.9289 80.5957 -36.843 80.0468 -34.4277 80.0468C-32.0123 80.0468 -29.9813 80.5957 -28.3345 81.6936C-26.5779 82.7915 -25.2055 84.2736 -24.2174 86.14C-23.2294 88.0064 -22.7353 90.0923 -22.7353 92.3979C-22.7353 94.5936 -23.2294 96.6796 -24.2174 98.6558C-25.2055 100.522 -26.5779 102.004 -28.3345 103.102C-29.9813 104.2 -32.0123 104.749 -34.4277 104.749C-36.843 104.749 -38.9289 104.2 -40.6855 103.102C-42.4421 102.004 -43.8145 100.522 -44.8025 98.6558C-45.7906 96.6796 -46.2847 94.5936 -46.2847 92.3979ZM-40.6855 3.63489L-124.673 118.911H-103.1L-19.1123 3.63489H-40.6855Z" fill="white" fill-opacity="0.08"/>
<path d="M3.80917 30.1485C3.80917 35.4183 5.07173 40.3038 7.59683 44.8051C10.2317 49.1966 13.7998 52.7098 18.3011 55.3447C22.8024 57.9796 27.8526 59.297 33.4517 59.297C39.1607 59.297 44.2109 57.9796 48.6024 55.3447C53.1036 52.7098 56.6168 49.1966 59.1419 44.8051C61.667 40.3038 62.9296 35.4183 62.9296 30.1485C62.9296 24.6591 61.667 19.7187 59.1419 15.3272C56.6168 10.9357 53.1036 7.47745 48.6024 4.95234C44.2109 2.31745 39.1607 1 33.4517 1C27.8526 1 22.8024 2.31745 18.3011 4.95234C13.7998 7.47745 10.2317 10.9357 7.59683 15.3272C5.07173 19.7187 3.80917 24.6591 3.80917 30.1485ZM21.5947 30.1485C21.5947 27.843 22.0887 25.757 23.0768 23.8906C24.0649 22.0243 25.4373 20.5421 27.1938 19.4443C28.9504 18.2366 31.0364 17.6328 33.4517 17.6328C35.867 17.6328 37.8981 18.2366 39.5449 19.4443C41.3015 20.5421 42.6739 22.0243 43.6619 23.8906C44.65 25.757 45.1441 27.843 45.1441 30.1485C45.1441 32.3442 44.65 34.4302 43.6619 36.4064C42.6739 38.2728 41.3015 39.7549 39.5449 40.8528C37.8981 41.9506 35.867 42.4996 33.4517 42.4996C31.0364 42.4996 28.9504 41.9506 27.1938 40.8528C25.4373 39.7549 24.0649 38.2728 23.0768 36.4064C22.0887 34.4302 21.5947 32.3442 21.5947 30.1485ZM78.739 92.3979C78.739 97.7774 80.0015 102.663 82.5266 107.054C85.1615 111.446 88.7296 114.959 93.2309 117.594C97.7321 120.229 102.782 121.546 108.382 121.546C114.09 121.546 119.141 120.229 123.532 117.594C128.033 114.959 131.547 111.446 134.072 107.054C136.597 102.663 137.859 97.7774 137.859 92.3979C137.859 87.0183 136.597 82.1328 134.072 77.7413C131.547 73.24 128.033 69.7268 123.532 67.2017C119.141 64.5668 114.09 63.2494 108.382 63.2494C102.782 63.2494 97.7321 64.5668 93.2309 67.2017C88.7296 69.7268 85.1615 73.24 82.5266 77.7413C80.0015 82.1328 78.739 87.0183 78.739 92.3979ZM96.5245 92.3979C96.5245 90.0923 97.0185 88.0064 98.0066 86.14C98.9947 84.2736 100.367 82.7915 102.124 81.6936C103.88 80.5957 105.966 80.0468 108.382 80.0468C110.797 80.0468 112.828 80.5957 114.475 81.6936C116.231 82.7915 117.604 84.2736 118.592 86.14C119.58 88.0064 120.074 90.0923 120.074 92.3979C120.074 94.5936 119.58 96.6796 118.592 98.6558C117.604 100.522 116.231 102.004 114.475 103.102C112.828 104.2 110.797 104.749 108.382 104.749C105.966 104.749 103.88 104.2 102.124 103.102C100.367 102.004 98.9947 100.522 98.0066 98.6558C97.0185 96.6796 96.5245 94.5936 96.5245 92.3979ZM102.124 3.63489L18.1364 118.911H39.7096L123.697 3.63489H102.124Z" fill="white" fill-opacity="0.08"/>
<path d="M146.618 30.1485C146.618 35.4183 147.881 40.3038 150.406 44.8051C153.041 49.1966 156.609 52.7098 161.11 55.3447C165.612 57.9796 170.662 59.297 176.261 59.297C181.97 59.297 187.02 57.9796 191.412 55.3447C195.913 52.7098 199.426 49.1966 201.951 44.8051C204.476 40.3038 205.739 35.4183 205.739 30.1485C205.739 24.6591 204.476 19.7187 201.951 15.3272C199.426 10.9357 195.913 7.47745 191.412 4.95234C187.02 2.31745 181.97 1 176.261 1C170.662 1 165.612 2.31745 161.11 4.95234C156.609 7.47745 153.041 10.9357 150.406 15.3272C147.881 19.7187 146.618 24.6591 146.618 30.1485ZM164.404 30.1485C164.404 27.843 164.898 25.757 165.886 23.8906C166.874 22.0243 168.246 20.5421 170.003 19.4443C171.76 18.2366 173.846 17.6328 176.261 17.6328C178.676 17.6328 180.707 18.2366 182.354 19.4443C184.111 20.5421 185.483 22.0243 186.471 23.8906C187.459 25.757 187.953 27.843 187.953 30.1485C187.953 32.3442 187.459 34.4302 186.471 36.4064C185.483 38.2728 184.111 39.7549 182.354 40.8528C180.707 41.9506 178.676 42.4996 176.261 42.4996C173.846 42.4996 171.76 41.9506 170.003 40.8528C168.246 39.7549 166.874 38.2728 165.886 36.4064C164.898 34.4302 164.404 32.3442 164.404 30.1485ZM221.548 92.3979C221.548 97.7774 222.811 102.663 225.336 107.054C227.971 111.446 231.539 114.959 236.04 117.594C240.541 120.229 245.592 121.546 251.191 121.546C256.9 121.546 261.95 120.229 266.341 117.594C270.843 114.959 274.356 111.446 276.881 107.054C279.406 102.663 280.669 97.7774 280.669 92.3979C280.669 87.0183 279.406 82.1328 276.881 77.7413C274.356 73.24 270.843 69.7268 266.341 67.2017C261.95 64.5668 256.9 63.2494 251.191 63.2494C245.592 63.2494 240.541 64.5668 236.04 67.2017C231.539 69.7268 227.971 73.24 225.336 77.7413C222.811 82.1328 221.548 87.0183 221.548 92.3979ZM239.334 92.3979C239.334 90.0923 239.828 88.0064 240.816 86.14C241.804 84.2736 243.176 82.7915 244.933 81.6936C246.689 80.5957 248.775 80.0468 251.191 80.0468C253.606 80.0468 255.637 80.5957 257.284 81.6936C259.04 82.7915 260.413 84.2736 261.401 86.14C262.389 88.0064 262.883 90.0923 262.883 92.3979C262.883 94.5936 262.389 96.6796 261.401 98.6558C260.413 100.522 259.04 102.004 257.284 103.102C255.637 104.2 253.606 104.749 251.191 104.749C248.775 104.749 246.689 104.2 244.933 103.102C243.176 102.004 241.804 100.522 240.816 98.6558C239.828 96.6796 239.334 94.5936 239.334 92.3979ZM244.933 3.63489L160.946 118.911H182.519L266.506 3.63489H244.933Z" fill="white" fill-opacity="0.08"/>
<path d="M289.428 30.1485C289.428 35.4183 290.69 40.3038 293.215 44.8051C295.85 49.1966 299.418 52.7098 303.919 55.3447C308.421 57.9796 313.471 59.297 319.07 59.297C324.779 59.297 329.829 57.9796 334.221 55.3447C338.722 52.7098 342.235 49.1966 344.76 44.8051C347.285 40.3038 348.548 35.4183 348.548 30.1485C348.548 24.6591 347.285 19.7187 344.76 15.3272C342.235 10.9357 338.722 7.47745 334.221 4.95234C329.829 2.31745 324.779 1 319.07 1C313.471 1 308.421 2.31745 303.919 4.95234C299.418 7.47745 295.85 10.9357 293.215 15.3272C290.69 19.7187 289.428 24.6591 289.428 30.1485ZM307.213 30.1485C307.213 27.843 307.707 25.757 308.695 23.8906C309.683 22.0243 311.056 20.5421 312.812 19.4443C314.569 18.2366 316.655 17.6328 319.07 17.6328C321.485 17.6328 323.516 18.2366 325.163 19.4443C326.92 20.5421 328.292 22.0243 329.28 23.8906C330.268 25.757 330.762 27.843 330.762 30.1485C330.762 32.3442 330.268 34.4302 329.28 36.4064C328.292 38.2728 326.92 39.7549 325.163 40.8528C323.516 41.9506 321.485 42.4996 319.07 42.4996C316.655 42.4996 314.569 41.9506 312.812 40.8528C311.056 39.7549 309.683 38.2728 308.695 36.4064C307.707 34.4302 307.213 32.3442 307.213 30.1485ZM364.357 92.3979C364.357 97.7774 365.62 102.663 368.145 107.054C370.78 111.446 374.348 114.959 378.849 117.594C383.351 120.229 388.401 121.546 394 121.546C399.709 121.546 404.759 120.229 409.151 117.594C413.652 114.959 417.165 111.446 419.69 107.054C422.215 102.663 423.478 97.7774 423.478 92.3979C423.478 87.0183 422.215 82.1328 419.69 77.7413C417.165 73.24 413.652 69.7268 409.151 67.2017C404.759 64.5668 399.709 63.2494 394 63.2494C388.401 63.2494 383.351 64.5668 378.849 67.2017C374.348 69.7268 370.78 73.24 368.145 77.7413C365.62 82.1328 364.357 87.0183 364.357 92.3979ZM382.143 92.3979C382.143 90.0923 382.637 88.0064 383.625 86.14C384.613 84.2736 385.985 82.7915 387.742 81.6936C389.499 80.5957 391.585 80.0468 394 80.0468C396.415 80.0468 398.446 80.5957 400.093 81.6936C401.85 82.7915 403.222 84.2736 404.21 86.14C405.198 88.0064 405.692 90.0923 405.692 92.3979C405.692 94.5936 405.198 96.6796 404.21 98.6558C403.222 100.522 401.85 102.004 400.093 103.102C398.446 104.2 396.415 104.749 394 104.749C391.585 104.749 389.499 104.2 387.742 103.102C385.985 102.004 384.613 100.522 383.625 98.6558C382.637 96.6796 382.143 94.5936 382.143 92.3979ZM387.742 3.63489L303.755 118.911H325.328L409.315 3.63489H387.742Z" fill="white" fill-opacity="0.08"/>
<path d="M432.237 30.1485C432.237 35.4183 433.499 40.3038 436.024 44.8051C438.659 49.1966 442.227 52.7098 446.729 55.3447C451.23 57.9796 456.28 59.297 461.879 59.297C467.588 59.297 472.638 57.9796 477.03 55.3447C481.531 52.7098 485.044 49.1966 487.569 44.8051C490.095 40.3038 491.357 35.4183 491.357 30.1485C491.357 24.6591 490.095 19.7187 487.569 15.3272C485.044 10.9357 481.531 7.47745 477.03 4.95234C472.638 2.31745 467.588 1 461.879 1C456.28 1 451.23 2.31745 446.729 4.95234C442.227 7.47745 438.659 10.9357 436.024 15.3272C433.499 19.7187 432.237 24.6591 432.237 30.1485ZM450.022 30.1485C450.022 27.843 450.516 25.757 451.504 23.8906C452.492 22.0243 453.865 20.5421 455.621 19.4443C457.378 18.2366 459.464 17.6328 461.879 17.6328C464.295 17.6328 466.326 18.2366 467.972 19.4443C469.729 20.5421 471.101 22.0243 472.089 23.8906C473.078 25.757 473.572 27.843 473.572 30.1485C473.572 32.3442 473.078 34.4302 472.089 36.4064C471.101 38.2728 469.729 39.7549 467.972 40.8528C466.326 41.9506 464.295 42.4996 461.879 42.4996C459.464 42.4996 457.378 41.9506 455.621 40.8528C453.865 39.7549 452.492 38.2728 451.504 36.4064C450.516 34.4302 450.022 32.3442 450.022 30.1485ZM507.167 92.3979C507.167 97.7774 508.429 102.663 510.954 107.054C513.589 111.446 517.157 114.959 521.658 117.594C526.16 120.229 531.21 121.546 536.809 121.546C542.518 121.546 547.568 120.229 551.96 117.594C556.461 114.959 559.974 111.446 562.499 107.054C565.024 102.663 566.287 97.7774 566.287 92.3979C566.287 87.0183 565.024 82.1328 562.499 77.7413C559.974 73.24 556.461 69.7268 551.96 67.2017C547.568 64.5668 542.518 63.2494 536.809 63.2494C531.21 63.2494 526.16 64.5668 521.658 67.2017C517.157 69.7268 513.589 73.24 510.954 77.7413C508.429 82.1328 507.167 87.0183 507.167 92.3979ZM524.952 92.3979C524.952 90.0923 525.446 88.0064 526.434 86.14C527.422 84.2736 528.795 82.7915 530.551 81.6936C532.308 80.5957 534.394 80.0468 536.809 80.0468C539.224 80.0468 541.255 80.5957 542.902 81.6936C544.659 82.7915 546.031 84.2736 547.019 86.14C548.007 88.0064 548.501 90.0923 548.501 92.3979C548.501 94.5936 548.007 96.6796 547.019 98.6558C546.031 100.522 544.659 102.004 542.902 103.102C541.255 104.2 539.224 104.749 536.809 104.749C534.394 104.749 532.308 104.2 530.551 103.102C528.795 102.004 527.422 100.522 526.434 98.6558C525.446 96.6796 524.952 94.5936 524.952 92.3979ZM530.551 3.63489L446.564 118.911H468.137L552.124 3.63489H530.551Z" fill="white" fill-opacity="0.08"/>
<path d="M575.046 30.1485C575.046 35.4183 576.308 40.3038 578.834 44.8051C581.468 49.1966 585.037 52.7098 589.538 55.3447C594.039 57.9796 599.089 59.297 604.688 59.297C610.397 59.297 615.448 57.9796 619.839 55.3447C624.34 52.7098 627.854 49.1966 630.379 44.8051C632.904 40.3038 634.166 35.4183 634.166 30.1485C634.166 24.6591 632.904 19.7187 630.379 15.3272C627.854 10.9357 624.34 7.47745 619.839 4.95234C615.448 2.31745 610.397 1 604.688 1C599.089 1 594.039 2.31745 589.538 4.95234C585.037 7.47745 581.468 10.9357 578.834 15.3272C576.308 19.7187 575.046 24.6591 575.046 30.1485ZM592.831 30.1485C592.831 27.843 593.326 25.757 594.314 23.8906C595.302 22.0243 596.674 20.5421 598.431 19.4443C600.187 18.2366 602.273 17.6328 604.688 17.6328C607.104 17.6328 609.135 18.2366 610.782 19.4443C612.538 20.5421 613.911 22.0243 614.899 23.8906C615.887 25.757 616.381 27.843 616.381 30.1485C616.381 32.3442 615.887 34.4302 614.899 36.4064C613.911 38.2728 612.538 39.7549 610.782 40.8528C609.135 41.9506 607.104 42.4996 604.688 42.4996C602.273 42.4996 600.187 41.9506 598.431 40.8528C596.674 39.7549 595.302 38.2728 594.314 36.4064C593.326 34.4302 592.831 32.3442 592.831 30.1485ZM649.976 92.3979C649.976 97.7774 651.238 102.663 653.763 107.054C656.398 111.446 659.966 114.959 664.468 117.594C668.969 120.229 674.019 121.546 679.618 121.546C685.327 121.546 690.377 120.229 694.769 117.594C699.27 114.959 702.783 111.446 705.308 107.054C707.834 102.663 709.096 97.7774 709.096 92.3979C709.096 87.0183 707.834 82.1328 705.308 77.7413C702.783 73.24 699.27 69.7268 694.769 67.2017C690.377 64.5668 685.327 63.2494 679.618 63.2494C674.019 63.2494 668.969 64.5668 664.468 67.2017C659.966 69.7268 656.398 73.24 653.763 77.7413C651.238 82.1328 649.976 87.0183 649.976 92.3979ZM667.761 92.3979C667.761 90.0923 668.255 88.0064 669.243 86.14C670.231 84.2736 671.604 82.7915 673.36 81.6936C675.117 80.5957 677.203 80.0468 679.618 80.0468C682.034 80.0468 684.065 80.5957 685.711 81.6936C687.468 82.7915 688.84 84.2736 689.828 86.14C690.817 88.0064 691.311 90.0923 691.311 92.3979C691.311 94.5936 690.817 96.6796 689.828 98.6558C688.84 100.522 687.468 102.004 685.711 103.102C684.065 104.2 682.034 104.749 679.618 104.749C677.203 104.749 675.117 104.2 673.36 103.102C671.604 102.004 670.231 100.522 669.243 98.6558C668.255 96.6796 667.761 94.5936 667.761 92.3979ZM673.36 3.63489L589.373 118.911H610.946L694.934 3.63489H673.36Z" fill="white" fill-opacity="0.08"/>
<path d="M717.855 30.1485C717.855 35.4183 719.118 40.3038 721.643 44.8051C724.278 49.1966 727.846 52.7098 732.347 55.3447C736.848 57.9796 741.898 59.297 747.498 59.297C753.207 59.297 758.257 57.9796 762.648 55.3447C767.15 52.7098 770.663 49.1966 773.188 44.8051C775.713 40.3038 776.975 35.4183 776.975 30.1485C776.975 24.6591 775.713 19.7187 773.188 15.3272C770.663 10.9357 767.15 7.47745 762.648 4.95234C758.257 2.31745 753.207 1 747.498 1C741.898 1 736.848 2.31745 732.347 4.95234C727.846 7.47745 724.278 10.9357 721.643 15.3272C719.118 19.7187 717.855 24.6591 717.855 30.1485ZM735.641 30.1485C735.641 27.843 736.135 25.757 737.123 23.8906C738.111 22.0243 739.483 20.5421 741.24 19.4443C742.996 18.2366 745.082 17.6328 747.498 17.6328C749.913 17.6328 751.944 18.2366 753.591 19.4443C755.347 20.5421 756.72 22.0243 757.708 23.8906C758.696 25.757 759.19 27.843 759.19 30.1485C759.19 32.3442 758.696 34.4302 757.708 36.4064C756.72 38.2728 755.347 39.7549 753.591 40.8528C751.944 41.9506 749.913 42.4996 747.498 42.4996C745.082 42.4996 742.996 41.9506 741.24 40.8528C739.483 39.7549 738.111 38.2728 737.123 36.4064C736.135 34.4302 735.641 32.3442 735.641 30.1485ZM792.785 92.3979C792.785 97.7774 794.047 102.663 796.573 107.054C799.207 111.446 802.776 114.959 807.277 117.594C811.778 120.229 816.828 121.546 822.427 121.546C828.136 121.546 833.187 120.229 837.578 117.594C842.079 114.959 845.593 111.446 848.118 107.054C850.643 102.663 851.905 97.7774 851.905 92.3979C851.905 87.0183 850.643 82.1328 848.118 77.7413C845.593 73.24 842.079 69.7268 837.578 67.2017C833.187 64.5668 828.136 63.2494 822.427 63.2494C816.828 63.2494 811.778 64.5668 807.277 67.2017C802.776 69.7268 799.207 73.24 796.573 77.7413C794.047 82.1328 792.785 87.0183 792.785 92.3979ZM810.57 92.3979C810.57 90.0923 811.064 88.0064 812.052 86.14C813.041 84.2736 814.413 82.7915 816.17 81.6936C817.926 80.5957 820.012 80.0468 822.427 80.0468C824.843 80.0468 826.874 80.5957 828.521 81.6936C830.277 82.7915 831.65 84.2736 832.638 86.14C833.626 88.0064 834.12 90.0923 834.12 92.3979C834.12 94.5936 833.626 96.6796 832.638 98.6558C831.65 100.522 830.277 102.004 828.521 103.102C826.874 104.2 824.843 104.749 822.427 104.749C820.012 104.749 817.926 104.2 816.17 103.102C814.413 102.004 813.041 100.522 812.052 98.6558C811.064 96.6796 810.57 94.5936 810.57 92.3979ZM816.17 3.63489L732.182 118.911H753.755L837.743 3.63489H816.17Z" fill="white" fill-opacity="0.08"/>
<path d="M860.664 30.1485C860.664 35.4183 861.927 40.3038 864.452 44.8051C867.087 49.1966 870.655 52.7098 875.156 55.3447C879.657 57.9796 884.708 59.297 890.307 59.297C896.016 59.297 901.066 57.9796 905.457 55.3447C909.959 52.7098 913.472 49.1966 915.997 44.8051C918.522 40.3038 919.785 35.4183 919.785 30.1485C919.785 24.6591 918.522 19.7187 915.997 15.3272C913.472 10.9357 909.959 7.47745 905.457 4.95234C901.066 2.31745 896.016 1 890.307 1C884.708 1 879.657 2.31745 875.156 4.95234C870.655 7.47745 867.087 10.9357 864.452 15.3272C861.927 19.7187 860.664 24.6591 860.664 30.1485ZM878.45 30.1485C878.45 27.843 878.944 25.757 879.932 23.8906C880.92 22.0243 882.292 20.5421 884.049 19.4443C885.805 18.2366 887.891 17.6328 890.307 17.6328C892.722 17.6328 894.753 18.2366 896.4 19.4443C898.156 20.5421 899.529 22.0243 900.517 23.8906C901.505 25.757 901.999 27.843 901.999 30.1485C901.999 32.3442 901.505 34.4302 900.517 36.4064C899.529 38.2728 898.156 39.7549 896.4 40.8528C894.753 41.9506 892.722 42.4996 890.307 42.4996C887.891 42.4996 885.805 41.9506 884.049 40.8528C882.292 39.7549 880.92 38.2728 879.932 36.4064C878.944 34.4302 878.45 32.3442 878.45 30.1485ZM935.594 92.3979C935.594 97.7774 936.856 102.663 939.382 107.054C942.016 111.446 945.585 114.959 950.086 117.594C954.587 120.229 959.637 121.546 965.236 121.546C970.945 121.546 975.996 120.229 980.387 117.594C984.888 114.959 988.402 111.446 990.927 107.054C993.452 102.663 994.714 97.7774 994.714 92.3979C994.714 87.0183 993.452 82.1328 990.927 77.7413C988.402 73.24 984.888 69.7268 980.387 67.2017C975.996 64.5668 970.945 63.2494 965.236 63.2494C959.637 63.2494 954.587 64.5668 950.086 67.2017C945.585 69.7268 942.016 73.24 939.382 77.7413C936.856 82.1328 935.594 87.0183 935.594 92.3979ZM953.38 92.3979C953.38 90.0923 953.873 88.0064 954.862 86.14C955.85 84.2736 957.222 82.7915 958.979 81.6936C960.735 80.5957 962.821 80.0468 965.236 80.0468C967.652 80.0468 969.683 80.5957 971.33 81.6936C973.086 82.7915 974.459 84.2736 975.447 86.14C976.435 88.0064 976.929 90.0923 976.929 92.3979C976.929 94.5936 976.435 96.6796 975.447 98.6558C974.459 100.522 973.086 102.004 971.33 103.102C969.683 104.2 967.652 104.749 965.236 104.749C962.821 104.749 960.735 104.2 958.979 103.102C957.222 102.004 955.85 100.522 954.862 98.6558C953.873 96.6796 953.38 94.5936 953.38 92.3979ZM958.979 3.63489L874.991 118.911H896.565L980.552 3.63489H958.979Z" fill="white" fill-opacity="0.08"/>
<path d="M1003.47 30.1485C1003.47 35.4183 1004.74 40.3038 1007.26 44.8051C1009.9 49.1966 1013.46 52.7098 1017.97 55.3447C1022.47 57.9796 1027.52 59.297 1033.12 59.297C1038.82 59.297 1043.88 57.9796 1048.27 55.3447C1052.77 52.7098 1056.28 49.1966 1058.81 44.8051C1061.33 40.3038 1062.59 35.4183 1062.59 30.1485C1062.59 24.6591 1061.33 19.7187 1058.81 15.3272C1056.28 10.9357 1052.77 7.47745 1048.27 4.95234C1043.88 2.31745 1038.82 1 1033.12 1C1027.52 1 1022.47 2.31745 1017.97 4.95234C1013.46 7.47745 1009.9 10.9357 1007.26 15.3272C1004.74 19.7187 1003.47 24.6591 1003.47 30.1485ZM1021.26 30.1485C1021.26 27.843 1021.75 25.757 1022.74 23.8906C1023.73 22.0243 1025.1 20.5421 1026.86 19.4443C1028.61 18.2366 1030.7 17.6328 1033.12 17.6328C1035.53 17.6328 1037.56 18.2366 1039.21 19.4443C1040.97 20.5421 1042.34 22.0243 1043.33 23.8906C1044.31 25.757 1044.81 27.843 1044.81 30.1485C1044.81 32.3442 1044.31 34.4302 1043.33 36.4064C1042.34 38.2728 1040.97 39.7549 1039.21 40.8528C1037.56 41.9506 1035.53 42.4996 1033.12 42.4996C1030.7 42.4996 1028.61 41.9506 1026.86 40.8528C1025.1 39.7549 1023.73 38.2728 1022.74 36.4064C1021.75 34.4302 1021.26 32.3442 1021.26 30.1485ZM1078.4 92.3979C1078.4 97.7774 1079.67 102.663 1082.19 107.054C1084.83 111.446 1088.39 114.959 1092.9 117.594C1097.4 120.229 1102.45 121.546 1108.05 121.546C1113.75 121.546 1118.8 120.229 1123.2 117.594C1127.7 114.959 1131.21 111.446 1133.74 107.054C1136.26 102.663 1137.52 97.7774 1137.52 92.3979C1137.52 87.0183 1136.26 82.1328 1133.74 77.7413C1131.21 73.24 1127.7 69.7268 1123.2 67.2017C1118.8 64.5668 1113.75 63.2494 1108.05 63.2494C1102.45 63.2494 1097.4 64.5668 1092.9 67.2017C1088.39 69.7268 1084.83 73.24 1082.19 77.7413C1079.67 82.1328 1078.4 87.0183 1078.4 92.3979ZM1096.19 92.3979C1096.19 90.0923 1096.68 88.0064 1097.67 86.14C1098.66 84.2736 1100.03 82.7915 1101.79 81.6936C1103.54 80.5957 1105.63 80.0468 1108.05 80.0468C1110.46 80.0468 1112.49 80.5957 1114.14 81.6936C1115.9 82.7915 1117.27 84.2736 1118.26 86.14C1119.24 88.0064 1119.74 90.0923 1119.74 92.3979C1119.74 94.5936 1119.24 96.6796 1118.26 98.6558C1117.27 100.522 1115.9 102.004 1114.14 103.102C1112.49 104.2 1110.46 104.749 1108.05 104.749C1105.63 104.749 1103.54 104.2 1101.79 103.102C1100.03 102.004 1098.66 100.522 1097.67 98.6558C1096.68 96.6796 1096.19 94.5936 1096.19 92.3979ZM1101.79 3.63489L1017.8 118.911H1039.37L1123.36 3.63489H1101.79Z" fill="white" fill-opacity="0.08"/>
<path d="M1146.28 30.1485C1146.28 35.4183 1147.55 40.3038 1150.07 44.8051C1152.71 49.1966 1156.27 52.7098 1160.77 55.3447C1165.28 57.9796 1170.33 59.297 1175.93 59.297C1181.63 59.297 1186.68 57.9796 1191.08 55.3447C1195.58 52.7098 1199.09 49.1966 1201.62 44.8051C1204.14 40.3038 1205.4 35.4183 1205.4 30.1485C1205.4 24.6591 1204.14 19.7187 1201.62 15.3272C1199.09 10.9357 1195.58 7.47745 1191.08 4.95234C1186.68 2.31745 1181.63 1 1175.93 1C1170.33 1 1165.28 2.31745 1160.77 4.95234C1156.27 7.47745 1152.71 10.9357 1150.07 15.3272C1147.55 19.7187 1146.28 24.6591 1146.28 30.1485ZM1164.07 30.1485C1164.07 27.843 1164.56 25.757 1165.55 23.8906C1166.54 22.0243 1167.91 20.5421 1169.67 19.4443C1171.42 18.2366 1173.51 17.6328 1175.93 17.6328C1178.34 17.6328 1180.37 18.2366 1182.02 19.4443C1183.77 20.5421 1185.15 22.0243 1186.14 23.8906C1187.12 25.757 1187.62 27.843 1187.62 30.1485C1187.62 32.3442 1187.12 34.4302 1186.14 36.4064C1185.15 38.2728 1183.77 39.7549 1182.02 40.8528C1180.37 41.9506 1178.34 42.4996 1175.93 42.4996C1173.51 42.4996 1171.42 41.9506 1169.67 40.8528C1167.91 39.7549 1166.54 38.2728 1165.55 36.4064C1164.56 34.4302 1164.07 32.3442 1164.07 30.1485ZM1221.21 92.3979C1221.21 97.7774 1222.47 102.663 1225 107.054C1227.63 111.446 1231.2 114.959 1235.7 117.594C1240.21 120.229 1245.26 121.546 1250.85 121.546C1256.56 121.546 1261.61 120.229 1266.01 117.594C1270.51 114.959 1274.02 111.446 1276.55 107.054C1279.07 102.663 1280.33 97.7774 1280.33 92.3979C1280.33 87.0183 1279.07 82.1328 1276.55 77.7413C1274.02 73.24 1270.51 69.7268 1266.01 67.2017C1261.61 64.5668 1256.56 63.2494 1250.85 63.2494C1245.26 63.2494 1240.21 64.5668 1235.7 67.2017C1231.2 69.7268 1227.63 73.24 1225 77.7413C1222.47 82.1328 1221.21 87.0183 1221.21 92.3979ZM1239 92.3979C1239 90.0923 1239.49 88.0064 1240.48 86.14C1241.47 84.2736 1242.84 82.7915 1244.6 81.6936C1246.35 80.5957 1248.44 80.0468 1250.85 80.0468C1253.27 80.0468 1255.3 80.5957 1256.95 81.6936C1258.7 82.7915 1260.08 84.2736 1261.07 86.14C1262.05 88.0064 1262.55 90.0923 1262.55 92.3979C1262.55 94.5936 1262.05 96.6796 1261.07 98.6558C1260.08 100.522 1258.7 102.004 1256.95 103.102C1255.3 104.2 1253.27 104.749 1250.85 104.749C1248.44 104.749 1246.35 104.2 1244.6 103.102C1242.84 102.004 1241.47 100.522 1240.48 98.6558C1239.49 96.6796 1239 94.5936 1239 92.3979ZM1244.6 3.63489L1160.61 118.911H1182.18L1266.17 3.63489H1244.6Z" fill="white" fill-opacity="0.08"/>
</g>
</g>
<defs>
<clipPath id="clip0_1_350">
<rect width="1920" height="4684" fill="white" transform="translate(-1546 -4424)"/>
</clipPath>
</defs>
</svg>
